<?xml version="1.0" encoding="utf-8"?>
<!-- Generator: Adobe Illustrator 16.0.0, SVG Export Plug-In . SVG Version: 6.00 Build 0)  -->
<!DOCTYPE svg PUBLIC "-//W3C//DTD SVG 1.1//EN" "http://www.w3.org/Graphics/SVG/1.1/DTD/svg11.dtd">
<svg version="1.1" id="Layer_1" xmlns="http://www.w3.org/2000/svg" xmlns:xlink="http://www.w3.org/1999/xlink" x="0px" y="0px"
	 width="652.857px" height="226.428px" viewBox="0 0 652.857 226.428" enable-background="new 0 0 652.857 226.428"
	 xml:space="preserve">
<g>
	<g>
		<path fill="#1C75BC" d="M32.738,149.538v-21.264H51.9V23.942H36.8V50.55H18.406V2.005h99.317V50.55h-17.208V23.938l-19.183,0.005
			v104.332h22.952v21.264H32.738z"/>
		<path fill="#1C75BC" d="M345.729,149.538v-21.264h19.163V23.942H349.79V50.55h-18.392V2.005h99.317V50.55h-17.21V23.938
			l-19.183,0.005v104.332h22.952v21.264H345.729z"/>
		<path fill="#1C75BC" d="M204.08,38.22h37.218v13.837c3.481-3.688,13.026-17.926,30.78-17.926
			c32.121,0,29.738,32.992,29.738,32.992v61.151h12.268v21.264H272.73v-21.264l-0.21-54.655c0,0,1.496-11.764-11.119-10.925
			c-16.203,1.078-20.103,16.443-20.103,16.443v49.137h13.372v21.264h-50.59v-21.264h12.959V60.592H204.08V38.22z"/>
		<g>
			<path fill="#1C75BC" d="M549.598,145.446h-37.221v-13.832c-3.482,3.688-13.022,17.924-30.776,17.924
				c-32.122,0-29.739-32.992-29.739-32.992V55.394h-12.268V34.131h41.353v21.263l0.209,54.658c0,0-1.496,11.761,11.12,10.925
				c16.2-1.077,20.102-16.443,20.102-16.443v-49.14h-13.371V34.131h39.351l0.482,6.549c0,0,6.494,7.733,8.153-16.394
				c0,0,22.242-5.234,21.058,0c-6.502,28.791-31.413,31.108-31.413,31.108v67.682h12.961V145.446z"/>
			<path fill="#1C75BC" d="M486.186,18.725l17.572-12.655h21.578l-25.3,12.655H486.186z"/>
		</g>
		<path fill="#1C75BC" d="M641.341,46.08v25.815h-22.067V53.279c0,0-14.326,2.731-21.037,14.784l0.2,38.175
			c0.37,7.897,4.297,16.174,18.504,20.261c0,0,10.112,0.683,19.848-5.898l8.412,18.077c-8.454,4.208-22.917,10.859-33.016,10.859
			c-11.771,0-22.471-4.682-29.917-11.835c-12.442-11.951-17.57-28.227-17.566-40.35c0.008-18.277,2.026-34.789,8.054-45.112
			c6.968-11.925,23.238-24.099,39.849-24.099C638.497,28.142,641.341,46.08,641.341,46.08z"/>
		<g>
			<path fill="#1C75BC" d="M132.75,42.977h43.352v85.297h17.779v21.264h-65.27v-21.264h18.057V60.592H132.75V42.977z"/>
			<circle fill="#1C75BC" cx="159.508" cy="23.354" r="16.593"/>
		</g>
	</g>
	<g>
		<rect x="1.857" y="155.723" fill="#CD2128" width="649.572" height="54.359"/>
		<radialGradient id="SVGID_1_" cx="58.8574" cy="179.0532" r="37.0359" gradientUnits="userSpaceOnUse">
			<stop  offset="0" style="stop-color:#FFFFFF"/>
			<stop  offset="1" style="stop-color:#007AC2"/>
		</radialGradient>
		<path fill="url(#SVGID_1_)" d="M107.298,186.978c0,21.065-17.074,38.14-38.136,38.14c-21.062,0-38.137-17.074-38.137-38.14
			c0-21.058,17.075-38.133,38.137-38.133C90.224,148.845,107.298,165.92,107.298,186.978z"/>
		<g>
			<path fill="#FFFFFF" d="M166.903,206.092v-40.855h9.206l19.181,27.284v-27.284h8.79v40.855h-9.494l-18.893-26.643v26.643H166.903
				z"/>
			<path fill="#FFFFFF" d="M466.667,206.092v-40.855h9.207l19.179,27.284v-27.284h8.793v40.855h-9.495L475.46,179.45v26.643H466.667
				z"/>
			<path fill="#FFFFFF" d="M282.042,205.926v-40.521h8.249v33.637h20.512v6.885H282.042z"/>
			<path fill="#FFFFFF" d="M381.056,206.092v-40.855h8.249v40.855H381.056z"/>
			<path fill="#FFFFFF" d="M573.875,206.092v-40.855h30.293v6.911h-22.044v9.058h20.511v6.884h-20.511v11.12h22.823v6.883H573.875z"
				/>
		</g>
	</g>
</g>
</svg>
